<svg version="1.1" xmlns="http://www.w3.org/2000/svg" xmlns:xlink="http://www.w3.org/1999/xlink" x="0px" y="0px"
	 width="512px" height="512px" viewBox="0 0 512 512" style="enable-background:new 0 0 512 512;" xml:space="preserve">
<path id="puzzle-1" d="

M92.556,359

C135.833,329.159,153,335.128,153,157.71
V462
h104.29
	c22.582,0,28.551-17.167,14.544-31.131
  c-6.832-6.84-15.834-12.523-15.834-29.321
  C256,382.889,275.028,359,307.5,359
	s51.5,23.889,51.5,42.548
  c0,16.798-9.002,22.481-15.825,29.321
  C329.159,444.833,335.128,462,357.71,462
  H462V357.71
	c0-22.582-17.167-28.551-31.131-14.535
  c-6.84,6.823-12.523,15.825-29.321,15.825
  C382.889,359,359,339.972,359,307.5
	s23.889-51.5,42.548-51.5
  c16.798,0,22.481,9.002,29.321,15.834
  C444.833,285.841,462,279.872,462,257.29
  V153
  H357.71


  C285.841,135.833,279.872,153,257.29,153
  H153
  v104.29

	S73.889,359,92.556,359z
  
  
  "/>
</svg>